<?xml version="1.0" encoding="UTF-8" standalone="no"?>
<!-- Created with Inkscape (http://www.inkscape.org/) -->

<svg
   xmlns:dc="http://purl.org/dc/elements/1.1/"
   xmlns:cc="http://creativecommons.org/ns#"
   xmlns:rdf="http://www.w3.org/1999/02/22-rdf-syntax-ns#"
   xmlns:svg="http://www.w3.org/2000/svg"
   xmlns="http://www.w3.org/2000/svg"
   xmlns:sodipodi="http://sodipodi.sourceforge.net/DTD/sodipodi-0.dtd"
   xmlns:inkscape="http://www.inkscape.org/namespaces/inkscape"
   width="48"
   height="48"
   id="svg1901"
   sodipodi:version="0.32"
   inkscape:version="0.48.1 r9760"
   sodipodi:docname="task_done_tick.svg"
   version="1.1">
  <defs
     id="defs1903" />
  <sodipodi:namedview
     id="base"
     pagecolor="#ffffff"
     bordercolor="#666666"
     borderopacity="1.0"
     inkscape:pageopacity="0.0"
     inkscape:pageshadow="2"
     inkscape:zoom="7.9195959"
     inkscape:cx="17.155229"
     inkscape:cy="23.751166"
     inkscape:document-units="px"
     inkscape:current-layer="layer1"
     inkscape:window-width="877"
     inkscape:window-height="739"
     inkscape:window-x="204"
     inkscape:window-y="84"
     showgrid="false"
     inkscape:window-maximized="0" />
  <metadata
     id="metadata1906">
    <rdf:RDF>
      <cc:Work
         rdf:about="">
        <dc:format>image/svg+xml</dc:format>
        <dc:type
           rdf:resource="http://purl.org/dc/dcmitype/StillImage" />
        <dc:title></dc:title>
      </cc:Work>
    </rdf:RDF>
  </metadata>
  <g
     inkscape:label="Taso 1"
     inkscape:groupmode="layer"
     id="layer1"
     transform="translate(0,-1004.3622)">
    <path
       style="fill:#00ff00"
       id="path2988"
       d="m 8.2981891,20.90825 c 0.3006313,0.08726 0.6096953,0.149459 0.9018938,0.261764 0.7465364,0.286929 2.1907101,1.032024 2.8223021,1.380659 2.28751,1.262694 4.439474,2.724986 6.602023,4.186467 2.356117,1.668637 4.637981,3.445425 6.741852,5.425797 0.574787,0.541047 2.171621,2.127351 2.70186,2.873096 0.220951,0.310753 0.346113,0.679526 0.51917,1.019289 -0.03428,1.53457 0.09757,1.273371 -1.863346,3.181458 -0.178433,0.173626 -0.497926,0.0047 -0.746889,0.0035 -0.460543,-0.0021 -0.885982,-0.04037 -1.337137,-0.124511 0.260308,-0.03018 0.531762,-0.0094 0.780925,-0.09053 0.0725,-0.02362 0.06891,-0.136437 0.110976,-0.200034 0.08532,-0.128976 0.206414,-0.236134 0.270606,-0.376822 0.136907,-0.300056 0.205974,-0.725744 0.06191,-1.042488 -0.112309,-0.246917 -0.31215,-0.443721 -0.468224,-0.665581 -4.826907,-0.474927 1.426469,-0.144259 -2.036832,0.421184 -0.145944,0.02383 -0.16588,-0.248556 -0.215061,-0.388014 -0.309435,-0.877435 -0.526766,-2.069455 -0.61194,-2.945797 -0.08402,-0.864479 -0.08742,-1.734904 -0.13113,-2.602356 0.07711,-1.099502 0.08901,-2.20553 0.231329,-3.298507 0.535905,-4.115654 1.754959,-8.168736 3.552597,-11.909074 1.5964,-3.321623 2.368979,-4.173518 4.444411,-7.1310624 1.784112,-1.978962 2.547944,-3.0751458 4.681328,-4.5740577 1.001568,-0.7036997 2.014012,-1.2530176 3.254233,-1.2302492 0.865989,0.015898 1.943239,-0.2998572 2.582813,0.2842092 0.611253,0.5582038 0.273582,1.6328019 0.410373,2.4492028 -0.121741,0.3462485 -0.243482,0.6924969 -0.365223,1.0387454 -0.159868,0.2641573 -3.895617,-1.9967183 -3.735749,-2.2608757 l 0,0 c 0.270493,-0.1719675 0.540986,-0.3439351 0.811479,-0.5159026 2.494221,3.3226636 -0.789772,-0.3078638 3.51112,1.6294907 0.293287,0.1321123 0.174466,0.6386796 0.126243,0.9567132 -0.0848,0.5592863 -0.298576,1.0945038 -0.516426,1.6165523 -0.424322,1.0168338 -2.040001,4.010324 -2.464088,4.812779 -0.556589,1.026576 -1.121418,2.048727 -1.669767,3.079728 -2.815081,5.292894 -5.46655,10.671859 -7.916274,16.143789 -0.674711,1.468079 -1.156425,2.597293 -1.917121,3.986309 -0.209361,0.382291 -0.449724,0.746779 -0.677458,1.118418 -0.295796,0.482709 -0.91056,1.552399 -1.404388,1.742414 -0.458874,0.176565 -0.981911,-0.05305 -1.472866,-0.07957 -0.207516,-0.242925 -0.470033,-0.448035 -0.622547,-0.728775 -0.214275,-0.394424 -0.152594,-1.010383 0.02242,-1.395441 0.109112,-0.24006 0.280273,-0.451532 0.463886,-0.640795 0.160652,-0.165597 0.334686,-0.348615 0.556742,-0.411244 0.494713,-0.139529 1.021169,-0.118531 1.531753,-0.177797 0.249536,0.01624 0.502748,0.003 0.748607,0.04871 0.418991,0.07781 1.070438,0.292538 1.371971,0.636522 0.08323,0.09495 0.132201,0.262282 0.07016,0.372259 -1.535013,2.720922 -0.808059,2.376393 -2.544067,2.720383 -0.463509,-0.07337 -0.940393,-0.08744 -1.390528,-0.220125 -1.202463,-0.354432 -3.035296,-1.283772 -4.059824,-1.88251 -2.591914,-1.514725 -4.925622,-3.406816 -7.127601,-5.43731 C 12.197148,31.276314 11.483172,30.60607 10.814078,29.892383 9.724724,28.730427 8.7366928,27.516208 7.7982491,26.232413 7.2578099,25.49309 6.6880162,24.672384 6.2968407,23.830142 6.1979575,23.617236 6.1449942,23.385878 6.069071,23.163747 5.9095833,23.006124 8.1387014,20.750628 8.2981891,20.90825 z"
       inkscape:connector-curvature="0"
       transform="translate(0,1004.3622)" />
  </g>
</svg>
